<svg xmlns="http://www.w3.org/2000/svg" version="1.1" xmlns:xlink="http://www.w3.org/1999/xlink" xmlns:svgjs="http://svgjs.dev/svgjs" width="2000" height="1500" viewBox="0 0 2000 1500"><rect width="2000" height="1500" fill="#7d3d22"></rect><g transform="matrix(0.75,0,0,0.75,249.0909386246285,282.7536437246963)"><svg viewBox="0 0 396 247" data-background-color="#7d3d22" preserveAspectRatio="xMidYMid meet" height="1247" width="2000" xmlns="http://www.w3.org/2000/svg" xmlns:xlink="http://www.w3.org/1999/xlink"><g id="tight-bounds" transform="matrix(1,0,0,1,0.23999264610387172,-0.09999999999999432)"><svg viewBox="0 0 395.52 247.2" height="247.2" width="395.52"><g><svg></svg></g><g><svg viewBox="0 0 395.52 247.2" height="247.2" width="395.52"><g transform="matrix(1,0,0,1,0,69.02149148561362)"><svg viewBox="0 0 395.52 109.15701702877274" height="109.15701702877274" width="395.52"><g><svg viewBox="0 0 395.52 109.15701702877274" height="109.15701702877274" width="395.52"><g><svg viewBox="0 0 395.52000000000004 109.15701702877276" height="109.15701702877274" width="395.52"><g><svg viewBox="0 0 395.52000000000004 109.15701702877276" height="109.15701702877276" width="395.52000000000004"><g><svg viewBox="0 0 395.52000000000004 109.15701702877276" height="109.15701702877276" width="395.52000000000004"><g><svg viewBox="0 0 395.52000000000004 109.15701702877276" height="109.15701702877276" width="395.52000000000004"><g transform="matrix(1,0,0,1,0,0)"><svg width="395.52000000000004" viewBox="4.550000190734863 -35 170.2899932861328 47" height="109.15701702877276" data-palette-color="#e6b17e"><path d="M23.3-3.25L23.3 0 4.55 0 4.55-35 8.3-35 8.3-3.25 23.3-3.25ZM39-14.95L39-14.95 41.05-14.95Q41.05-19.5 39.9-20.88 38.75-22.25 34.8-22.25 30.85-22.25 28.1-21.2L28.1-21.2 27.4-24.1Q31.6-25.5 36.1-25.5L36.1-25.5Q44.9-25.5 44.9-16.7L44.9-16.7 44.9 0 42.7 0 41.4-2.95Q39.1-1.05 37.42-0.38 35.75 0.3 33.55 0.3L33.55 0.3Q30.05 0.3 28.1-1.78 26.15-3.85 26.15-7.25L26.15-7.25Q26.15-14.95 39-14.95ZM41.1-6.55L41.1-11.8 38.85-11.8Q33.75-11.8 31.82-10.8 29.9-9.8 29.9-7.68 29.9-5.55 31-4.2 32.1-2.85 33.87-2.85 35.65-2.85 37.27-3.68 38.9-4.5 41.1-6.55L41.1-6.55ZM51.9-21.75L51.9-25 67.25-25 67.25-22 56.25-3.25 67.85-3.25 67.85 0 51.9 0 51.9-3 62.9-21.75 51.9-21.75ZM85.84-14.95L85.84-14.95 87.89-14.95Q87.89-19.5 86.74-20.88 85.59-22.25 81.64-22.25 77.69-22.25 74.94-21.2L74.94-21.2 74.24-24.1Q78.44-25.5 82.94-25.5L82.94-25.5Q91.74-25.5 91.74-16.7L91.74-16.7 91.74 0 89.54 0 88.24-2.95Q85.94-1.05 84.27-0.38 82.59 0.3 80.39 0.3L80.39 0.3Q76.89 0.3 74.94-1.78 72.99-3.85 72.99-7.25L72.99-7.25Q72.99-14.95 85.84-14.95ZM87.94-6.55L87.94-11.8 85.69-11.8Q80.59-11.8 78.67-10.8 76.74-9.8 76.74-7.68 76.74-5.55 77.84-4.2 78.94-2.85 80.72-2.85 82.49-2.85 84.12-3.68 85.74-4.5 87.94-6.55L87.94-6.55ZM104.59-19.85L104.59-19.85 104.59 0 100.84 0 100.84-25 103.24-25 103.84-22.55Q104.99-23.45 105.72-23.95 106.44-24.45 108.04-24.98 109.64-25.5 111.44-25.5L111.44-25.5Q114.89-25.5 117.17-23.38 119.44-21.25 119.44-17.35L119.44-17.35 119.44 0 115.69 0 115.69-16.25Q115.69-22.3 110.64-22.3L110.64-22.3Q107.04-22.3 104.59-19.85ZM142.74 1.7L142.74-2.65Q138.54 0.35 135.09 0.35L135.09 0.35Q126.09 0.35 126.09-12.6L126.09-12.6Q126.09-19.95 129.29-22.9L129.29-22.9Q132.14-25.5 136.21-25.5 140.29-25.5 143.04-21.8L143.04-21.8 144.34-25.05 146.54-25.05 146.54 1.25Q146.54 6.7 143.84 9.35 141.14 12 136.54 12L136.54 12Q134.19 12 132.34 11.4 130.49 10.8 128.49 10.05L128.49 10.05 129.19 7.4Q133.39 8.75 136.21 8.75 139.04 8.75 140.89 7 142.74 5.25 142.74 1.7L142.74 1.7ZM142.74-6.25L142.74-6.25 142.74-15.6Q142.74-18.55 140.79-20.4 138.84-22.25 136.79-22.25L136.79-22.25Q132.89-22.25 131.34-19.98 129.79-17.7 129.79-12.7L129.79-12.7Q129.79-2.9 135.29-2.9L135.29-2.9Q138.89-2.9 142.74-6.25ZM171.09-12.33Q171.09-17.15 169.19-19.7 167.28-22.25 163.64-22.25 159.99-22.25 158.46-19.83 156.94-17.4 156.94-12.4L156.94-12.4Q156.94-2.95 163.89-2.95L163.89-2.95Q167.53-2.95 169.31-5.23 171.09-7.5 171.09-12.33ZM171.99-3.1Q169.14 0.3 163.94 0.3 158.74 0.3 155.96-3.08 153.19-6.45 153.19-12.53 153.19-18.6 155.86-22.05 158.53-25.5 163.71-25.5 168.89-25.5 171.86-22 174.84-18.5 174.84-12.5 174.84-6.5 171.99-3.1Z" opacity="1" transform="matrix(1,0,0,1,0,0)" fill="#e6b17e" class="undefined-text-0" data-fill-palette-color="primary" id="text-0"></path></svg></g></svg></g></svg></g></svg></g><g></g></svg></g></svg></g></svg></g><g mask="url(#2adfc567-7a83-4086-9b5e-a288aba2e591)"><g transform="matrix(2.6803964792979946, 0, 0, 2.6803964792979946, 63.74017603510026, 1)"><svg xmlns="http://www.w3.org/2000/svg" xmlns:xlink="http://www.w3.org/1999/xlink" version="1.1" x="0" y="0" viewBox="0 4.770999908447266 100 91.47900390625" enable-background="new 0 0 100 100" xml:space="preserve" height="91.47900390625" width="100" class="icon-none" data-fill-palette-color="accent" id="none"><g fill="#d9bca9" data-fill-palette-color="accent"><polygon fill="#d9bca9" points="40.353,4.771 37.621,10.525 44.786,16.319 49.231,11.588 49.09,11.438 49.093,11.437  " data-fill-palette-color="accent"></polygon><polygon fill="#d9bca9" points="55.049,16.319 62.214,10.525 59.48,4.771 50.578,11.562  " data-fill-palette-color="accent"></polygon><polygon fill="#d9bca9" points="63.454,10.808 54.955,17.681 50.674,13.124 50.674,96.25 77.986,96.25 77.609,36.051    95.255,41.273 100,19.591 62.573,8.953  " data-fill-palette-color="accent"></polygon><path fill="#d9bca9" d="M44.878 17.681l-8.499-6.873 0.916-1.929L0 19.205l5.123 22.261 17.267-5.667V96.25h26.841V13.048L44.878 17.681zM44.926 86.667c-0.828 0-1.5-0.671-1.5-1.5s0.672-1.5 1.5-1.5 1.5 0.671 1.5 1.5S45.754 86.667 44.926 86.667zM44.926 74.967c-0.828 0-1.5-0.672-1.5-1.5s0.672-1.5 1.5-1.5 1.5 0.672 1.5 1.5S45.754 74.967 44.926 74.967zM44.926 63.267c-0.828 0-1.5-0.672-1.5-1.5s0.672-1.5 1.5-1.5 1.5 0.672 1.5 1.5S45.754 63.267 44.926 63.267zM44.926 51.566c-0.828 0-1.5-0.671-1.5-1.5 0-0.829 0.672-1.5 1.5-1.5s1.5 0.671 1.5 1.5C46.426 50.895 45.754 51.566 44.926 51.566zM44.926 39.867c-0.828 0-1.5-0.671-1.5-1.5s0.672-1.5 1.5-1.5 1.5 0.671 1.5 1.5S45.754 39.867 44.926 39.867zM44.926 28.167c-0.829 0-1.5-0.671-1.5-1.5s0.671-1.5 1.5-1.5 1.5 0.671 1.5 1.5S45.754 28.167 44.926 28.167z" data-fill-palette-color="accent"></path></g></svg></g></g></svg></g><defs><mask id="4d2494c3-b419-4f51-9cb5-9b5b435131cb"><rect width="640" height="400" fill="white"></rect><rect width="348.05760000000004" height="128.5565767463535" fill="black" x="145.97119999999998" y="135.72171162682326" id="transform-me" transform="matrix(1,0,0,1,-122.24000000000001,-76.4)"></rect></mask><mask id="223f51e5-e36d-4817-a1fc-7d2abc8e2332"><rect width="640" height="400" fill="white"></rect><rect width="348.05760000000004" height="128.5565767463535" fill="black" x="145.97119999999998" y="135.72171162682326" id="transform-me" transform="matrix(1,0,0,1,-122.24000000000001,-76.4)"></rect></mask><mask id="1da66a2f-6e47-4646-9fb5-c2121e3f36c9"><rect width="640" height="400" fill="white"></rect><rect width="348.05760000000004" height="128.5565767463535" fill="black" x="145.97119999999998" y="135.72171162682326" id="transform-me" transform="matrix(1,0,0,1,-122.24000000000001,-76.4)"></rect></mask><mask id="dfae28c5-a1c9-4c41-a81a-8ac9f000bbac"><rect width="640" height="400" fill="white"></rect><rect width="435.072" height="160.69572093294187" fill="black" x="102.464" y="119.65213953352907" id="transform-me" transform="matrix(1,0,0,1,-122.24000000000001,-76.4)"></rect></mask><mask id="0e535be1-e836-4d26-9ece-c7a133a347db"><rect width="640" height="400" fill="white"></rect><rect width="435.072" height="160.69572093294187" fill="black" x="102.464" y="119.65213953352907" id="transform-me" transform="matrix(1,0,0,1,-122.24000000000001,-76.4)"></rect></mask><mask id="8b9d2211-2346-42eb-b84c-73eca882d669"><rect width="640" height="400" fill="white"></rect><rect width="174.02880000000002" height="64.27828837317675" fill="black" x="232.98559999999998" y="167.86085581341163" id="transform-me" transform="matrix(1,0,0,1,-122.24000000000001,-76.4)"></rect></mask><mask id="ff6d4fdf-00c7-41c5-8945-810187f08e74"><rect width="640" height="400" fill="white"></rect><rect width="232.0384" height="85.70438449756898" fill="black" x="203.9808" y="157.1478077512155" id="transform-me" transform="matrix(1,0,0,1,-122.24000000000001,-76.4)"></rect></mask><mask id="bccf27b1-ece1-4667-9951-66cbf9fe5be6"><rect width="640" height="400" fill="white"></rect><rect width="348.05760000000004" height="128.5565767463535" fill="black" x="145.97119999999998" y="135.72171162682326" id="transform-me" transform="matrix(1,0,0,1,-122.24000000000001,-76.4)"></rect></mask><mask id="e24aaed9-d1ff-4913-9709-8f483f0ee169"><rect width="640" height="400" fill="white"></rect><rect width="435.072" height="160.69572093294187" fill="black" x="102.464" y="119.65213953352907" id="transform-me" transform="matrix(1,0,0,1,-122.24000000000001,-76.4)"></rect></mask><mask id="cd59b3d3-aba4-40c8-9cb2-9caaa9206094"><rect width="640" height="400" fill="white"></rect><rect width="435.072" height="160.69572093294187" fill="black" x="102.464" y="119.65213953352907" id="transform-me" transform="matrix(1,0,0,1,-122.24000000000001,-76.4)"></rect></mask><mask id="577d5892-3131-45dc-bdbe-7345e2c44afb"><rect width="640" height="400" fill="white"></rect><rect width="174.02880000000002" height="64.27828837317675" fill="black" x="232.98559999999998" y="167.86085581341163" id="transform-me" transform="matrix(1,0,0,1,-122.24000000000001,-76.4)"></rect></mask><mask id="f542bd57-7fe0-4f59-b656-af02217379ba"><rect width="640" height="400" fill="white"></rect><rect width="435.072" height="160.69572093294187" fill="black" x="102.464" y="119.65213953352907" id="transform-me" transform="matrix(1,0,0,1,-122.24000000000001,-76.4)"></rect></mask><mask id="46f63b3e-6dc4-47b0-a366-83907d9112ee"><rect width="640" height="400" fill="white"></rect><rect width="348.05760000000004" height="128.5565767463535" fill="black" x="145.97119999999998" y="135.72171162682326" id="transform-me" transform="matrix(1,0,0,1,-122.24000000000001,-76.4)"></rect></mask><mask id="a7e2f329-e5f2-4037-beaa-fb6054433e69"><rect width="640" height="400" fill="white"></rect><rect width="232.0384" height="85.70438449756898" fill="black" x="203.9808" y="157.1478077512155" id="transform-me" transform="matrix(1,0,0,1,-122.24000000000001,-76.4)"></rect></mask><mask id="2adfc567-7a83-4086-9b5e-a288aba2e591"><rect width="640" height="400" fill="white"></rect><rect width="435.072" height="160.69572093294187" fill="black" x="102.464" y="119.65213953352907" id="transform-me" transform="matrix(1,0,0,1,-122.24000000000001,-76.4)"></rect></mask></defs></svg><rect width="395.52" height="247.2" fill="none" stroke="none" visibility="hidden"></rect></g></svg></g></svg>